<?xml version="1.0" standalone="no"?>
<!DOCTYPE svg PUBLIC "-//W3C//DTD SVG 20010904//EN"
 "http://www.w3.org/TR/2001/REC-SVG-20010904/DTD/svg10.dtd">
<svg version="1.0" xmlns="http://www.w3.org/2000/svg"
 width="665.000000pt" height="571.000000pt" viewBox="0 0 665.000000 571.000000"
 preserveAspectRatio="xMidYMid meet">
<metadata>
Created by potrace 1.16, written by Peter Selinger 2001-2019
</metadata>
<g transform="translate(0.000000,571.000000) scale(0.100000,-0.100000)"
fill="#000000" stroke="none">
<path d="M3873 4948 c-27 -50 -32 -321 -8 -387 24 -63 37 -75 123 -118 41 -20
89 -46 106 -58 17 -11 56 -35 86 -51 30 -17 89 -50 130 -74 41 -23 84 -48 95
-54 11 -6 34 -21 52 -33 17 -13 35 -23 41 -23 5 0 28 -13 50 -30 23 -16 44
-30 47 -30 5 0 151 -91 278 -172 23 -15 62 -39 87 -53 25 -14 65 -39 90 -55
25 -16 54 -34 65 -39 67 -33 75 -76 31 -158 -14 -26 -39 -84 -56 -128 -17 -44
-42 -102 -54 -130 -13 -27 -31 -72 -41 -100 -10 -27 -21 -54 -25 -60 -4 -5
-15 -32 -25 -60 -10 -27 -24 -59 -32 -70 -7 -11 -13 -27 -13 -36 0 -15 -18
-59 -41 -101 -5 -10 -9 -27 -9 -37 0 -11 -4 -23 -10 -26 -5 -3 -10 -13 -10
-22 0 -8 -7 -29 -15 -46 -25 -55 -67 -171 -72 -202 -3 -16 -10 -36 -16 -43 -5
-7 -13 -29 -18 -50 -8 -40 -14 -61 -53 -192 -14 -47 -26 -92 -26 -101 0 -9
-37 -47 -81 -85 -45 -38 -100 -86 -123 -106 -71 -66 -205 -150 -246 -155 -32
-5 -43 -1 -64 20 -23 23 -26 34 -26 89 1 35 5 81 10 103 24 106 42 173 55 200
18 39 45 114 52 142 3 12 11 28 19 34 8 6 14 17 14 24 0 16 176 364 213 422
15 24 27 47 27 53 0 5 4 10 9 10 5 0 13 10 17 22 3 12 13 28 20 36 27 26 74
101 74 116 0 38 -80 45 -235 21 -211 -33 -312 -69 -362 -130 -31 -38 -130
-223 -165 -309 -11 -28 -38 -100 -60 -161 -37 -103 -53 -155 -79 -250 -22 -79
-60 -145 -83 -145 -5 0 -28 -17 -52 -37 -51 -45 -103 -86 -118 -93 -6 -3 -36
-21 -66 -40 -109 -69 -186 -108 -287 -146 -55 -21 -91 -27 -189 -31 -78 -4
-134 -1 -156 6 -32 11 -118 85 -118 102 0 4 -6 14 -14 21 -7 8 -17 38 -21 66
-6 43 -4 53 10 58 10 4 25 -2 39 -15 67 -63 199 -59 346 12 25 12 52 27 60 33
8 7 32 22 54 34 70 39 269 212 370 322 106 116 206 285 206 348 0 12 5 30 10
40 12 23 -9 140 -36 192 -16 31 -52 79 -92 121 -38 42 -152 80 -232 79 -68 -2
-205 -18 -240 -30 -19 -6 -62 -20 -95 -31 -72 -23 -254 -117 -275 -141 -3 -3
-36 -29 -75 -57 -105 -78 -244 -229 -299 -327 -16 -28 -32 -53 -35 -56 -12
-10 -92 -177 -117 -245 -14 -38 -32 -98 -40 -131 -14 -55 -21 -67 -77 -116
-173 -153 -301 -238 -358 -238 -14 0 -36 11 -49 25 -22 23 -23 29 -16 117 6
91 9 105 40 204 9 29 16 61 16 72 0 12 4 23 9 26 5 3 12 18 15 32 4 14 15 45
25 68 10 22 29 66 42 96 22 50 95 178 109 190 18 16 50 65 50 76 0 7 -7 20
-17 29 -14 15 -32 16 -132 10 -176 -10 -313 -63 -390 -151 -33 -36 -99 -165
-156 -300 -57 -135 -76 -174 -116 -234 -20 -30 -38 -60 -40 -66 -6 -16 -88
-104 -97 -104 -4 0 -18 -10 -32 -23 -56 -50 -82 -61 -157 -61 -62 -1 -75 2
-97 23 -33 31 -69 105 -62 128 3 10 10 50 16 90 12 86 31 147 71 228 60 122
97 173 204 280 120 121 183 172 302 244 109 66 128 76 238 113 109 36 129 41
220 50 49 5 112 11 138 14 27 4 53 2 60 -4 7 -6 54 -14 104 -18 l91 -7 18 27
c14 23 15 33 7 59 -6 18 -14 46 -18 62 -12 59 -65 99 -140 109 -57 7 -298 -8
-365 -22 -25 -6 -74 -15 -110 -22 -66 -11 -231 -63 -305 -95 -22 -9 -53 -23
-70 -30 -70 -28 -198 -94 -220 -113 -5 -4 -26 -17 -45 -28 -51 -28 -144 -95
-153 -111 -4 -7 -13 -13 -20 -13 -14 0 -228 -215 -273 -275 -85 -112 -114
-164 -170 -300 -38 -92 -46 -122 -65 -255 -32 -222 55 -439 207 -520 l61 -33
124 6 c127 6 189 21 288 69 56 28 186 121 216 156 32 37 50 23 75 -57 23 -75
48 -104 121 -141 60 -31 221 -28 314 5 114 42 235 105 314 164 40 31 83 63 95
71 11 8 38 31 59 50 21 19 45 39 53 43 16 9 44 -8 44 -26 0 -22 61 -134 92
-168 41 -45 134 -109 159 -109 10 0 20 -4 24 -9 23 -38 323 -65 465 -43 107
17 264 72 355 124 11 7 49 28 85 48 36 20 91 55 122 78 32 23 60 42 65 42 4 0
19 12 35 27 41 39 54 21 61 -85 8 -129 37 -182 119 -217 41 -17 206 -21 236
-6 9 5 39 14 66 20 52 12 206 80 206 90 0 4 17 15 38 26 20 11 48 30 62 43 14
12 28 22 32 22 3 0 26 18 50 40 23 22 46 40 50 40 4 0 18 12 32 26 39 43 50
28 65 -88 15 -120 40 -168 106 -205 35 -20 54 -23 160 -23 103 0 130 4 190 25
94 34 134 51 210 93 95 53 342 280 392 360 9 15 27 38 39 52 43 48 104 181
104 226 0 54 -8 74 -30 74 -42 0 -105 -49 -255 -195 -150 -147 -268 -226 -352
-233 -46 -4 -53 -2 -68 22 -28 42 -13 173 41 346 14 47 29 94 34 105 4 11 15
45 25 75 10 30 21 60 25 65 4 6 11 25 15 44 4 19 18 55 32 80 13 25 33 71 43
101 10 30 34 89 53 130 18 41 42 95 52 120 10 25 26 64 36 86 10 23 21 54 25
68 3 14 10 29 15 32 5 3 9 11 9 19 0 8 18 51 39 97 22 46 43 96 46 111 4 15
11 30 16 33 5 3 9 13 9 24 0 18 18 30 46 30 8 0 78 -42 156 -93 150 -98 227
-131 303 -129 87 1 150 71 143 158 -3 36 -8 42 -68 81 -36 23 -69 46 -75 50
-5 5 -17 12 -25 16 -8 4 -49 31 -90 61 -41 30 -95 67 -120 82 -25 15 -47 30
-50 33 -3 4 -17 14 -32 24 -32 20 -34 33 -14 79 8 18 28 67 45 108 16 41 37
89 45 105 9 17 16 33 16 37 0 14 134 283 142 286 4 2 8 10 8 18 0 8 6 25 14
37 7 12 16 46 19 75 6 48 4 56 -19 79 l-26 26 -130 -7 c-72 -4 -141 -12 -155
-17 -13 -5 -38 -9 -54 -9 -16 0 -52 -11 -79 -25 -40 -20 -56 -37 -89 -94 -23
-38 -45 -80 -50 -93 -13 -36 -50 -119 -67 -151 -8 -16 -14 -34 -14 -41 0 -22
-30 -74 -47 -80 -10 -4 -35 8 -67 32 -28 21 -98 72 -155 113 -57 41 -127 91
-155 111 -28 20 -87 62 -131 92 -44 30 -89 61 -100 70 -47 38 -501 346 -509
346 -5 0 -72 43 -91 58 -26 21 -176 92 -194 92 -13 0 -27 -12 -38 -32z m-700
-2118 c33 -38 41 -77 32 -156 -5 -52 -15 -76 -48 -127 -62 -94 -194 -217 -292
-271 -16 -9 -37 -20 -45 -25 -42 -26 -150 -62 -175 -59 -45 5 -51 26 -31 114
24 104 65 223 87 252 10 13 27 42 38 66 30 61 146 176 211 208 45 22 69 28
127 28 67 0 73 -2 96 -30z"/>
<path d="M4551 3893 c-9 -7 -22 -13 -30 -13 -33 0 -141 -64 -170 -100 -34 -42
-61 -110 -61 -153 0 -57 79 -160 124 -162 13 -1 37 -7 55 -14 51 -22 135 -5
206 41 71 47 125 91 125 103 0 8 3 15 8 15 21 1 33 22 42 75 8 52 7 64 -13
104 -12 24 -44 61 -70 83 -48 37 -50 38 -124 36 -42 -2 -83 -8 -92 -15z"/>
</g>
</svg>
